# xmcd CD database file
#
# Track frame offsets:
#	150
#	16756
#	35326
#	52719
#	78195
#	95454
#	113685
#	136769
#	166352
#	188777
#	208388
#	230028
#	248708
#	269309
#	290320
#	313032
#
# Disc length: 4373 seconds
#
# Revision: 1
# Processed by: cddbd v1.4PL0 Copyright (c) Steve Scherf et al.
# Submitted via: CDex 1.50
#
DISCID=ce111310
DTITLE=Antonio Carlos Jobim - Verve Jazz Masters 13
DYEAR=1993
DGENRE=Jazz
TTITLE0=Corcovado (Quiet nights of quiet stars)
TTITLE1=Vivo sonhando (Dreamer)
TTITLE2=So danco samba
TTITLE3=Desafinado (Off key)
TTITLE4=Aguas de marco (Waters of March)
TTITLE5=O grande amor
TTITLE6=Agua de beber
TTITLE7=Chovendo na roseiro (Double rainbow)
TTITLE8=O morro nao tem vez
TTITLE9=Fascinating rhythm
TTITLE10=Insensatez (How insensitive)
TTITLE11=Inútil paisagem (Useless landscape)
TTITLE12=Favela
TTITLE13=Por todo minha vida
TTITLE14=Triste
TTITLE15=Borzeguim
EXTD=YEAR: 1993
EXTT0=
EXTT1=
EXTT2=
EXTT3=
EXTT4=
EXTT5=
EXTT6=
EXTT7=
EXTT8=
EXTT9=
EXTT10=
EXTT11=
EXTT12=
EXTT13=
EXTT14=
EXTT15=
PLAYORDER=
